# xmcd
#
# Track frame offsets:
#	150
#	1432
#	56446
#	62170
#	77260
#	82878
#	117402
#	119499
#	121176
#	122953
#	138836
#	147032
#	159557
#	166757
#	173864
#	200598
#	202680
#	206421
#	209314
#	212703
#	216909
#	227017
#	237590
#	242768
#	245213
#	273999
#	283498
#	308006
#
# Disc length: 4119 seconds
# Revision: 1
# Processed by: cddbd v1.5.2PL0 Copyright (c) Steve Scherf et al.
# Submitted via: dBpowerAMP V12.0
#
DISCID=9910151c
DTITLE=Hale Dwoskin - The Inner Circle Retreat 03 CD 19
DYEAR=2007
DGENRE=Speech
TTITLE0=Intro Music
TTITLE1=Participant Gain - How to Support Yourself - How to Apply the Method in Life
TTITLE2=Participant Gain
TTITLE3=Participant Gain
TTITLE4=Participant Gain
TTITLE5=If You Feel Stuck
TTITLE6=Sharing
TTITLE7=Help the Supposed Others
TTITLE8=Participant Gain
TTITLE9=Participant Gain
TTITLE10=Participant Gain
TTITLE11=Welcome All Feelings to the Party
TTITLE12=It Is Not Serious
TTITLE13=History of The Sedona Method
TTITLE14=About Wording a Goal Statement
TTITLE15=Sharing on Jack Canfield
TTITLE16=Participant Gain
TTITLE17=Participant Gain
TTITLE18=Participant Gain
TTITLE19=Participant Gain
TTITLE20=Participant Gain
TTITLE21=Participant Gain
TTITLE22=Participant Gain
TTITLE23=Participant Gain
TTITLE24=Sharing - Funny Patterns
TTITLE25=Release on Being Grateful to the Power That Knows the Way
TTITLE26=Concluding Release
TTITLE27=Concluding Music
EXTD=
EXTT0=
EXTT1=
EXTT2=
EXTT3=
EXTT4=
EXTT5=
EXTT6=
EXTT7=
EXTT8=
EXTT9=
EXTT10=
EXTT11=
EXTT12=
EXTT13=
EXTT14=
EXTT15=
EXTT16=
EXTT17=
EXTT18=
EXTT19=
EXTT20=
EXTT21=
EXTT22=
EXTT23=
EXTT24=
EXTT25=
EXTT26=
EXTT27=
PLAYORDER=
